<svg width="33" height="32" viewBox="0 0 33 32" fill="none" xmlns="http://www.w3.org/2000/svg">
<path fill-rule="evenodd" clip-rule="evenodd" d="M23.8414 9.23053C24.1343 8.93763 24.1343 8.46276 23.8414 8.16987C23.5485 7.87697 23.0736 7.87697 22.7807 8.16987L16.0118 14.9387L9.24298 8.16987C8.95008 7.87697 8.47521 7.87697 8.18232 8.16987C7.88942 8.46276 7.88942 8.93763 8.18232 9.23053L14.9512 15.9994L8.18232 22.7683C7.88942 23.0612 7.88942 23.536 8.18232 23.8289C8.47521 24.1218 8.95008 24.1218 9.24298 23.8289L16.0118 17.0601L22.7807 23.8289C23.0736 24.1218 23.5485 24.1218 23.8414 23.8289C24.1343 23.536 24.1343 23.0612 23.8414 22.7683L17.0725 15.9994L23.8414 9.23053Z" fill="#363A3C"/>
</svg>
