<svg width="40" height="41" viewBox="0 0 40 41" fill="none" xmlns="http://www.w3.org/2000/svg">
<path fill-rule="evenodd" clip-rule="evenodd" d="M11.6464 28.6464C11.4512 28.8417 11.4512 29.1583 11.6464 29.3536C11.8417 29.5488 12.1583 29.5488 12.3536 29.3536L20 21.7071L27.6464 29.3536C27.8417 29.5488 28.1583 29.5488 28.3536 29.3536C28.5488 29.1583 28.5488 28.8417 28.3536 28.6465L20.7071 21L28.3536 13.3536C28.5488 13.1583 28.5488 12.8417 28.3536 12.6464C28.1583 12.4512 27.8417 12.4512 27.6464 12.6464L20 20.2929L12.3536 12.6464C12.1583 12.4512 11.8417 12.4512 11.6464 12.6464C11.4512 12.8417 11.4512 13.1583 11.6464 13.3536L19.2929 21L11.6464 28.6464Z" fill="white"/>
</svg>
